<mxfile host="Electron" modified="2024-07-16T00:46:57.227Z" agent="Mozilla/5.0 (Windows NT 10.0; Win64; x64) AppleWebKit/537.36 (KHTML, like Gecko) draw.io/24.6.4 Chrome/124.0.6367.207 Electron/30.0.6 Safari/537.36" etag="76O9l4SDIcT4bxWfNVcQ" version="24.6.4" type="device">
  <diagram name="Página-1" id="X4yGat1UL4yKTtZNy6NT">
    <mxGraphModel dx="2048" dy="823" grid="1" gridSize="10" guides="1" tooltips="1" connect="1" arrows="1" fold="1" page="1" pageScale="1" pageWidth="827" pageHeight="1169" math="0" shadow="0">
      <root>
        <mxCell id="0" />
        <mxCell id="1" parent="0" />
        <mxCell id="GviSDebqHvodrFMelNdd-11" value="&lt;div&gt;&lt;font style=&quot;font-size: 9px;&quot;&gt;&lt;div style=&quot;font-size: 12px;&quot;&gt;&lt;font style=&quot;font-size: 9px;&quot;&gt;&lt;b&gt;Microsserviço Usuários&lt;br&gt;&lt;/b&gt;&lt;/font&gt;&lt;/div&gt;&lt;/font&gt;&lt;/div&gt;&lt;font style=&quot;font-size: 9px;&quot;&gt;POST &lt;span style=&quot;color: rgb(33, 33, 33); font-family: Inter, system-ui, -apple-system, BlinkMacSystemFont, &amp;quot;Segoe UI&amp;quot;, Roboto, Oxygen, Ubuntu, Cantarell, &amp;quot;Fira Sans&amp;quot;, &amp;quot;Droid Sans&amp;quot;, Helvetica, Arial, sans-serif; font-size: 12px; white-space-collapse: preserve; background-color: rgb(255, 255, 255);&quot;&gt;/usuarios/registrar&lt;/span&gt;&lt;br&gt;GET&amp;nbsp;&lt;span style=&quot;color: rgb(33, 33, 33); font-family: Inter, system-ui, -apple-system, BlinkMacSystemFont, &amp;quot;Segoe UI&amp;quot;, Roboto, Oxygen, Ubuntu, Cantarell, &amp;quot;Fira Sans&amp;quot;, &amp;quot;Droid Sans&amp;quot;, Helvetica, Arial, sans-serif; font-size: 12px; white-space-collapse: preserve; background-color: rgb(255, 255, 255);&quot;&gt;/usuarios/todos&lt;/span&gt;&lt;br&gt;POST&amp;nbsp;&lt;span style=&quot;color: rgb(33, 33, 33); font-family: Inter, system-ui, -apple-system, BlinkMacSystemFont, &amp;quot;Segoe UI&amp;quot;, Roboto, Oxygen, Ubuntu, Cantarell, &amp;quot;Fira Sans&amp;quot;, &amp;quot;Droid Sans&amp;quot;, Helvetica, Arial, sans-serif; font-size: 12px; white-space-collapse: preserve; background-color: rgb(255, 255, 255);&quot;&gt;/usuarios/autenticar&lt;/span&gt;&lt;br&gt;&lt;br&gt;&lt;/font&gt;&lt;div&gt;&lt;font style=&quot;font-size: 9px;&quot;&gt;&lt;br&gt;&lt;/font&gt;&lt;/div&gt;" style="text;whiteSpace=wrap;html=1;" parent="1" vertex="1">
          <mxGeometry x="40" y="12" width="170" height="100" as="geometry" />
        </mxCell>
        <mxCell id="GviSDebqHvodrFMelNdd-23" value="&lt;div&gt;&lt;font style=&quot;font-size: 9px;&quot;&gt;&lt;b&gt;Microsserviço Gestão de Itens&lt;br&gt;&lt;/b&gt;&lt;/font&gt;&lt;/div&gt;&lt;font style=&quot;font-size: 9px;&quot;&gt;GET /produtos&lt;br&gt;GET /produtos/{id}&lt;br&gt;POST /produtos&lt;/font&gt;&lt;div&gt;&lt;font style=&quot;font-size: 9px;&quot;&gt;PUT /produtos/{id}&lt;br&gt;DELETE /produtos/{id}&lt;/font&gt;&lt;div&gt;&lt;font style=&quot;font-size: 9px;&quot;&gt;GET /&lt;/font&gt;&lt;span style=&quot;background-color: rgb(255, 255, 255); color: rgb(33, 33, 33); font-family: Inter, system-ui, -apple-system, BlinkMacSystemFont, &amp;quot;Segoe UI&amp;quot;, Roboto, Oxygen, Ubuntu, Cantarell, &amp;quot;Fira Sans&amp;quot;, &amp;quot;Droid Sans&amp;quot;, Helvetica, Arial, sans-serif; white-space-collapse: preserve;&quot;&gt;produtos/{id}/atualizar-estoque&lt;/span&gt;&lt;/div&gt;&lt;div&gt;&lt;font style=&quot;font-size: 9px;&quot;&gt;&lt;div style=&quot;font-size: 12px;&quot;&gt;&lt;font style=&quot;font-size: 9px;&quot;&gt;&lt;i&gt;.&lt;/i&gt;&lt;/font&gt;&lt;/div&gt;&lt;/font&gt;&lt;/div&gt;&lt;/div&gt;" style="text;whiteSpace=wrap;html=1;" parent="1" vertex="1">
          <mxGeometry x="210" y="10" width="220" height="130" as="geometry" />
        </mxCell>
        <mxCell id="GviSDebqHvodrFMelNdd-35" value="&lt;div&gt;&lt;font style=&quot;font-size: 9px;&quot;&gt;&lt;div style=&quot;font-size: 12px;&quot;&gt;&lt;font style=&quot;font-size: 9px;&quot;&gt;&lt;div style=&quot;font-size: 12px;&quot;&gt;&lt;font style=&quot;font-size: 9px;&quot;&gt;&lt;b&gt;Microsserviço Carrinho de Compras&lt;/b&gt;&lt;/font&gt;&lt;/div&gt;&lt;/font&gt;&lt;/div&gt;&lt;/font&gt;&lt;/div&gt;&lt;font style=&quot;font-size: 9px;&quot;&gt;GET /pedidos&lt;br&gt;GET /pedidos/{id}&lt;br&gt;POST /pedidos&lt;br&gt;PUT /pedidos/{id}&lt;br&gt;DELETE /pedidos/{id}&lt;/font&gt;&lt;div&gt;&lt;font style=&quot;font-size: 9px;&quot;&gt;&lt;br&gt;&lt;/font&gt;&lt;/div&gt;" style="text;whiteSpace=wrap;html=1;" parent="1" vertex="1">
          <mxGeometry x="458" y="12" width="132" height="100" as="geometry" />
        </mxCell>
        <mxCell id="GviSDebqHvodrFMelNdd-38" value="&lt;div&gt;&lt;font style=&quot;font-size: 9px;&quot;&gt;&lt;div style=&quot;font-size: 12px;&quot;&gt;&lt;font style=&quot;font-size: 9px;&quot;&gt;&lt;div style=&quot;font-size: 12px;&quot;&gt;&lt;font style=&quot;font-size: 9px;&quot;&gt;&lt;div style=&quot;font-size: 12px;&quot;&gt;&lt;font style=&quot;font-size: 9px;&quot;&gt;&lt;b&gt;Microsserviço Pagamentos&lt;/b&gt;&lt;/font&gt;&lt;/div&gt;&lt;/font&gt;&lt;/div&gt;&lt;/font&gt;&lt;/div&gt;&lt;/font&gt;&lt;/div&gt;&lt;font style=&quot;font-size: 9px;&quot;&gt;POST /pagamentos&lt;br&gt;GET /pagamentos&lt;br&gt;GET /pagamentos/{id}&lt;br&gt;&lt;br&gt;&lt;/font&gt;&lt;div&gt;&lt;font style=&quot;font-size: 9px;&quot;&gt;&lt;br&gt;&lt;/font&gt;&lt;/div&gt;" style="text;whiteSpace=wrap;html=1;" parent="1" vertex="1">
          <mxGeometry x="620" y="12" width="170" height="78" as="geometry" />
        </mxCell>
        <mxCell id="GviSDebqHvodrFMelNdd-84" style="edgeStyle=orthogonalEdgeStyle;rounded=0;orthogonalLoop=1;jettySize=auto;html=1;entryX=0;entryY=0.5;entryDx=0;entryDy=0;" parent="1" source="GviSDebqHvodrFMelNdd-86" target="GviSDebqHvodrFMelNdd-88" edge="1">
          <mxGeometry relative="1" as="geometry">
            <mxPoint x="251" y="350.5" as="targetPoint" />
          </mxGeometry>
        </mxCell>
        <mxCell id="GviSDebqHvodrFMelNdd-85" value="Usuário se cadastra / login no e-commerce" style="edgeLabel;html=1;align=center;verticalAlign=middle;resizable=0;points=[];" parent="GviSDebqHvodrFMelNdd-84" vertex="1" connectable="0">
          <mxGeometry x="-0.2949" y="2" relative="1" as="geometry">
            <mxPoint x="39" y="2" as="offset" />
          </mxGeometry>
        </mxCell>
        <mxCell id="GviSDebqHvodrFMelNdd-98" style="edgeStyle=orthogonalEdgeStyle;rounded=0;orthogonalLoop=1;jettySize=auto;html=1;entryX=0;entryY=0.5;entryDx=0;entryDy=0;" parent="1" source="GviSDebqHvodrFMelNdd-86" target="GviSDebqHvodrFMelNdd-96" edge="1">
          <mxGeometry relative="1" as="geometry">
            <Array as="points">
              <mxPoint x="-34" y="506" />
              <mxPoint x="70" y="506" />
              <mxPoint x="70" y="761" />
            </Array>
          </mxGeometry>
        </mxCell>
        <mxCell id="GviSDebqHvodrFMelNdd-99" value="- Usuário cadastra produtos no carrinho de compras&lt;div&gt;&lt;br&gt;&lt;/div&gt;" style="edgeLabel;html=1;align=center;verticalAlign=middle;resizable=0;points=[];" parent="GviSDebqHvodrFMelNdd-98" vertex="1" connectable="0">
          <mxGeometry x="0.2125" y="1" relative="1" as="geometry">
            <mxPoint as="offset" />
          </mxGeometry>
        </mxCell>
        <mxCell id="GviSDebqHvodrFMelNdd-86" value="Usuário" style="shape=umlActor;verticalLabelPosition=bottom;verticalAlign=top;html=1;outlineConnect=0;" parent="1" vertex="1">
          <mxGeometry x="-49" y="320.5" width="30" height="59.5" as="geometry" />
        </mxCell>
        <mxCell id="GviSDebqHvodrFMelNdd-87" value="" style="edgeStyle=orthogonalEdgeStyle;rounded=0;orthogonalLoop=1;jettySize=auto;html=1;" parent="1" source="GviSDebqHvodrFMelNdd-88" target="GviSDebqHvodrFMelNdd-89" edge="1">
          <mxGeometry relative="1" as="geometry" />
        </mxCell>
        <mxCell id="GviSDebqHvodrFMelNdd-88" value="Usuários" style="shape=process;whiteSpace=wrap;html=1;backgroundOutline=1;" parent="1" vertex="1">
          <mxGeometry x="261" y="320.5" width="120" height="60" as="geometry" />
        </mxCell>
        <mxCell id="7g0iQvHUmDkomxm3N5RD-30" style="edgeStyle=orthogonalEdgeStyle;rounded=0;orthogonalLoop=1;jettySize=auto;html=1;exitX=0.75;exitY=0;exitDx=0;exitDy=0;entryX=0.75;entryY=1;entryDx=0;entryDy=0;" parent="1" source="GviSDebqHvodrFMelNdd-96" target="GviSDebqHvodrFMelNdd-88" edge="1">
          <mxGeometry relative="1" as="geometry" />
        </mxCell>
        <mxCell id="Z1I42a4XKH3U9Z4pWpdQ-16" style="edgeStyle=orthogonalEdgeStyle;rounded=0;orthogonalLoop=1;jettySize=auto;html=1;" parent="1" source="GviSDebqHvodrFMelNdd-116" target="GviSDebqHvodrFMelNdd-86" edge="1">
          <mxGeometry relative="1" as="geometry">
            <Array as="points">
              <mxPoint x="301" y="980" />
              <mxPoint x="-39" y="980" />
            </Array>
            <mxPoint x="100.5" y="778" as="targetPoint" />
          </mxGeometry>
        </mxCell>
        <mxCell id="Z1I42a4XKH3U9Z4pWpdQ-17" value="Usuário realiza pagamentos" style="edgeLabel;html=1;align=center;verticalAlign=middle;resizable=0;points=[];" parent="Z1I42a4XKH3U9Z4pWpdQ-16" vertex="1" connectable="0">
          <mxGeometry x="-0.1039" y="4" relative="1" as="geometry">
            <mxPoint as="offset" />
          </mxGeometry>
        </mxCell>
        <mxCell id="7g0iQvHUmDkomxm3N5RD-13" value="Microsserviços" style="points=[[0,0],[0.25,0],[0.5,0],[0.75,0],[1,0],[1,0.25],[1,0.5],[1,0.75],[1,1],[0.75,1],[0.5,1],[0.25,1],[0,1],[0,0.75],[0,0.5],[0,0.25]];outlineConnect=0;gradientColor=none;html=1;whiteSpace=wrap;fontSize=12;fontStyle=0;container=1;pointerEvents=0;collapsible=0;recursiveResize=0;shape=mxgraph.aws4.group;grIcon=mxgraph.aws4.group_vpc2;strokeColor=#8C4FFF;fillColor=none;verticalAlign=top;align=left;spacingLeft=30;fontColor=#AAB7B8;dashed=0;" parent="1" vertex="1">
          <mxGeometry x="-379" y="140" width="1620" height="970" as="geometry" />
        </mxCell>
        <mxCell id="7g0iQvHUmDkomxm3N5RD-26" value="" style="shape=image;verticalLabelPosition=bottom;labelBackgroundColor=default;verticalAlign=top;aspect=fixed;imageAspect=0;image=https://upload.wikimedia.org/wikipedia/commons/thumb/4/44/Spring_Framework_Logo_2018.svg/2560px-Spring_Framework_Logo_2018.svg.png;" parent="7g0iQvHUmDkomxm3N5RD-13" vertex="1">
          <mxGeometry x="680" y="220" width="40" height="10.27" as="geometry" />
        </mxCell>
        <mxCell id="GviSDebqHvodrFMelNdd-116" value="Pagamentos" style="shape=process;whiteSpace=wrap;html=1;backgroundOutline=1;" parent="7g0iQvHUmDkomxm3N5RD-13" vertex="1">
          <mxGeometry x="620" y="819" width="120" height="60" as="geometry" />
        </mxCell>
        <mxCell id="VJY29G_teH6isdjX_PNN-5" value="&lt;div&gt;RDS&lt;/div&gt;db_pagamentos" style="outlineConnect=0;dashed=0;verticalLabelPosition=bottom;verticalAlign=top;align=center;html=1;shape=mxgraph.aws3.rds;fillColor=#2E73B8;gradientColor=none;" vertex="1" parent="7g0iQvHUmDkomxm3N5RD-13">
          <mxGeometry x="864" y="808.5" width="72" height="81" as="geometry" />
        </mxCell>
        <mxCell id="VJY29G_teH6isdjX_PNN-6" value="" style="edgeStyle=orthogonalEdgeStyle;rounded=0;orthogonalLoop=1;jettySize=auto;html=1;exitX=1;exitY=0.5;exitDx=0;exitDy=0;" edge="1" parent="7g0iQvHUmDkomxm3N5RD-13" source="GviSDebqHvodrFMelNdd-116" target="VJY29G_teH6isdjX_PNN-5">
          <mxGeometry relative="1" as="geometry">
            <mxPoint x="770" y="476" as="sourcePoint" />
            <mxPoint x="874" y="476" as="targetPoint" />
          </mxGeometry>
        </mxCell>
        <mxCell id="GviSDebqHvodrFMelNdd-95" value="" style="edgeStyle=orthogonalEdgeStyle;rounded=0;orthogonalLoop=1;jettySize=auto;html=1;" parent="7g0iQvHUmDkomxm3N5RD-13" source="GviSDebqHvodrFMelNdd-96" target="GviSDebqHvodrFMelNdd-97" edge="1">
          <mxGeometry relative="1" as="geometry" />
        </mxCell>
        <mxCell id="GviSDebqHvodrFMelNdd-96" value="Carrinho-compras" style="shape=process;whiteSpace=wrap;html=1;backgroundOutline=1;" parent="7g0iQvHUmDkomxm3N5RD-13" vertex="1">
          <mxGeometry x="640" y="590.5" width="120" height="60" as="geometry" />
        </mxCell>
        <mxCell id="GviSDebqHvodrFMelNdd-97" value="&lt;div&gt;RDS&lt;/div&gt;db_compras" style="outlineConnect=0;dashed=0;verticalLabelPosition=bottom;verticalAlign=top;align=center;html=1;shape=mxgraph.aws3.rds;fillColor=#2E73B8;gradientColor=none;" parent="7g0iQvHUmDkomxm3N5RD-13" vertex="1">
          <mxGeometry x="874" y="580" width="72" height="81" as="geometry" />
        </mxCell>
        <mxCell id="7g0iQvHUmDkomxm3N5RD-27" value="" style="shape=image;verticalLabelPosition=bottom;labelBackgroundColor=default;verticalAlign=top;aspect=fixed;imageAspect=0;image=https://upload.wikimedia.org/wikipedia/commons/thumb/4/44/Spring_Framework_Logo_2018.svg/2560px-Spring_Framework_Logo_2018.svg.png;" parent="7g0iQvHUmDkomxm3N5RD-13" vertex="1">
          <mxGeometry x="678" y="633" width="40" height="10.27" as="geometry" />
        </mxCell>
        <mxCell id="7g0iQvHUmDkomxm3N5RD-36" style="edgeStyle=orthogonalEdgeStyle;rounded=0;orthogonalLoop=1;jettySize=auto;html=1;exitX=0.25;exitY=0;exitDx=0;exitDy=0;" parent="7g0iQvHUmDkomxm3N5RD-13" source="GviSDebqHvodrFMelNdd-116" target="GviSDebqHvodrFMelNdd-96" edge="1">
          <mxGeometry relative="1" as="geometry">
            <Array as="points">
              <mxPoint x="710" y="819" />
            </Array>
          </mxGeometry>
        </mxCell>
        <mxCell id="7g0iQvHUmDkomxm3N5RD-37" value="Atualizar Status do pagamento do carrinho" style="edgeLabel;html=1;align=center;verticalAlign=middle;resizable=0;points=[];" parent="7g0iQvHUmDkomxm3N5RD-36" vertex="1" connectable="0">
          <mxGeometry x="0.1466" relative="1" as="geometry">
            <mxPoint x="1" as="offset" />
          </mxGeometry>
        </mxCell>
        <mxCell id="VJY29G_teH6isdjX_PNN-7" value="Gestão-Itens" style="shape=process;whiteSpace=wrap;html=1;backgroundOutline=1;" vertex="1" parent="7g0iQvHUmDkomxm3N5RD-13">
          <mxGeometry x="538" y="390" width="120" height="60" as="geometry" />
        </mxCell>
        <mxCell id="VJY29G_teH6isdjX_PNN-8" value="" style="shape=image;verticalLabelPosition=bottom;labelBackgroundColor=default;verticalAlign=top;aspect=fixed;imageAspect=0;image=https://upload.wikimedia.org/wikipedia/commons/thumb/4/44/Spring_Framework_Logo_2018.svg/2560px-Spring_Framework_Logo_2018.svg.png;" vertex="1" parent="7g0iQvHUmDkomxm3N5RD-13">
          <mxGeometry x="578" y="429.5" width="40" height="10.27" as="geometry" />
        </mxCell>
        <mxCell id="VJY29G_teH6isdjX_PNN-9" value="&lt;div&gt;RDS&lt;/div&gt;db_produtos" style="outlineConnect=0;dashed=0;verticalLabelPosition=bottom;verticalAlign=top;align=center;html=1;shape=mxgraph.aws3.rds;fillColor=#2E73B8;gradientColor=none;" vertex="1" parent="7g0iQvHUmDkomxm3N5RD-13">
          <mxGeometry x="874" y="379.5" width="72" height="81" as="geometry" />
        </mxCell>
        <mxCell id="VJY29G_teH6isdjX_PNN-13" value="" style="endArrow=classic;html=1;rounded=0;edgeStyle=orthogonalEdgeStyle;" edge="1" parent="7g0iQvHUmDkomxm3N5RD-13" source="VJY29G_teH6isdjX_PNN-7" target="VJY29G_teH6isdjX_PNN-9">
          <mxGeometry width="50" height="50" relative="1" as="geometry">
            <mxPoint x="870" y="560" as="sourcePoint" />
            <mxPoint x="920" y="510" as="targetPoint" />
          </mxGeometry>
        </mxCell>
        <mxCell id="VJY29G_teH6isdjX_PNN-14" value="" style="endArrow=classic;html=1;rounded=0;entryX=0;entryY=0.5;entryDx=0;entryDy=0;edgeStyle=orthogonalEdgeStyle;" edge="1" parent="7g0iQvHUmDkomxm3N5RD-13" target="VJY29G_teH6isdjX_PNN-7">
          <mxGeometry width="50" height="50" relative="1" as="geometry">
            <mxPoint x="340" y="330" as="sourcePoint" />
            <mxPoint x="390" y="280" as="targetPoint" />
            <Array as="points">
              <mxPoint x="340" y="331" />
              <mxPoint x="489" y="331" />
              <mxPoint x="489" y="420" />
            </Array>
          </mxGeometry>
        </mxCell>
        <mxCell id="VJY29G_teH6isdjX_PNN-15" value="Cliente cadastra produto" style="edgeLabel;html=1;align=center;verticalAlign=middle;resizable=0;points=[];" vertex="1" connectable="0" parent="VJY29G_teH6isdjX_PNN-14">
          <mxGeometry x="0.1038" y="2" relative="1" as="geometry">
            <mxPoint as="offset" />
          </mxGeometry>
        </mxCell>
        <mxCell id="VJY29G_teH6isdjX_PNN-16" value="" style="shape=image;verticalLabelPosition=bottom;labelBackgroundColor=default;verticalAlign=top;aspect=fixed;imageAspect=0;image=https://upload.wikimedia.org/wikipedia/commons/thumb/4/44/Spring_Framework_Logo_2018.svg/2560px-Spring_Framework_Logo_2018.svg.png;" vertex="1" parent="7g0iQvHUmDkomxm3N5RD-13">
          <mxGeometry x="658" y="860" width="40" height="10.27" as="geometry" />
        </mxCell>
        <mxCell id="GviSDebqHvodrFMelNdd-89" value="&lt;div&gt;RDS&lt;/div&gt;db_usuarios" style="outlineConnect=0;dashed=0;verticalLabelPosition=bottom;verticalAlign=top;align=center;html=1;shape=mxgraph.aws3.rds;fillColor=#2E73B8;gradientColor=none;" parent="7g0iQvHUmDkomxm3N5RD-13" vertex="1">
          <mxGeometry x="874" y="169.99999999999997" width="72" height="81" as="geometry" />
        </mxCell>
      </root>
    </mxGraphModel>
  </diagram>
</mxfile>
